<?xml version="1.0" encoding="UTF-8"?>
<svg id="Layer_1" data-name="Layer 1" xmlns="http://www.w3.org/2000/svg" xmlns:xlink="http://www.w3.org/1999/xlink" viewBox="0 0 557.29 104.35">
  <defs>
    <style>
      .cls-1, .cls-2, .cls-3, .cls-4, .cls-5, .cls-6 {
        stroke-width: 0px;
      }

      .cls-2 {
        fill: none;
      }

      .cls-3 {
        fill: #0057fd;
      }

      .cls-4 {
        fill: #fff;
      }

      .cls-5 {
        fill: #231f20;
      }

      .cls-7 {
        clip-path: url(#clippath);
      }

      .cls-6 {
        fill: #708ec8;
      }
    </style>
    <clipPath id="clippath">
      <rect class="cls-2" width="557.29" height="104.35"/>
    </clipPath>
  </defs>
  <rect class="cls-5" width="557.29" height="104.35"/>
  <g class="cls-7">
    <g>
      <g>
        <path class="cls-1" d="M499.87,75.65c-.67-.64-1-1.44-1-2.4s.33-1.76,1-2.4,1.52-.96,2.56-.96,1.85.32,2.5.96.98,1.44.98,2.4-.33,1.76-.98,2.4-1.49.96-2.5.96-1.89-.32-2.56-.96Z"/>
        <path class="cls-1" d="M510.94,49.93c-.67-.64-1-1.44-1-2.4s.33-1.76,1-2.4,1.51-.96,2.52-.96,1.85.32,2.52.96,1,1.44,1,2.4-.33,1.76-1,2.4-1.51.96-2.52.96-1.85-.32-2.52-.96ZM516.29,53.6v22.72h-5.74v-22.72h5.74Z"/>
        <path class="cls-1" d="M526.14,75.24c-1.75-.97-3.12-2.34-4.12-4.12s-1.5-3.83-1.5-6.15.51-4.38,1.54-6.15,2.43-3.15,4.2-4.12,3.76-1.46,5.95-1.46,4.17.49,5.95,1.46,3.18,2.34,4.2,4.12,1.54,3.83,1.54,6.15-.53,4.38-1.58,6.15-2.47,3.15-4.27,4.12-3.79,1.46-6.01,1.46-4.16-.49-5.91-1.46ZM534.97,70.93c.92-.51,1.65-1.26,2.19-2.28s.82-2.24.82-3.69c0-2.16-.57-3.82-1.7-4.98s-2.52-1.74-4.16-1.74-3.01.58-4.12,1.74-1.66,2.82-1.66,4.98.54,3.82,1.62,4.98,2.44,1.74,4.08,1.74c1.04,0,2.02-.25,2.93-.76Z"/>
      </g>
      <g>
        <path class="cls-4" d="M499.87,75.65c-.67-.64-1-1.44-1-2.4s.33-1.76,1-2.4,1.52-.96,2.56-.96,1.85.32,2.5.96.98,1.44.98,2.4-.33,1.76-.98,2.4-1.49.96-2.5.96-1.89-.32-2.56-.96Z"/>
        <path class="cls-4" d="M510.94,49.93c-.67-.64-1-1.44-1-2.4s.33-1.76,1-2.4,1.51-.96,2.52-.96,1.85.32,2.52.96,1,1.44,1,2.4-.33,1.76-1,2.4-1.51.96-2.52.96-1.85-.32-2.52-.96ZM516.29,53.6v22.72h-5.74v-22.72h5.74Z"/>
        <path class="cls-4" d="M526.14,75.24c-1.75-.97-3.12-2.34-4.12-4.12s-1.5-3.83-1.5-6.15.51-4.38,1.54-6.15,2.43-3.15,4.2-4.12,3.76-1.46,5.95-1.46,4.17.49,5.95,1.46,3.18,2.34,4.2,4.12,1.54,3.83,1.54,6.15-.53,4.38-1.58,6.15-2.47,3.15-4.27,4.12-3.79,1.46-6.01,1.46-4.16-.49-5.91-1.46ZM534.97,70.93c.92-.51,1.65-1.26,2.19-2.28s.82-2.24.82-3.69c0-2.16-.57-3.82-1.7-4.98s-2.52-1.74-4.16-1.74-3.01.58-4.12,1.74-1.66,2.82-1.66,4.98.54,3.82,1.62,4.98,2.44,1.74,4.08,1.74c1.04,0,2.02-.25,2.93-.76Z"/>
      </g>
    </g>
    <g>
      <g>
        <path class="cls-6" d="M131.8,68.71h-17.94l-2.97,8.58h-9.49l16.2-45.1h10.52l16.2,45.1h-9.55l-2.97-8.58ZM129.35,61.48l-6.52-18.84-6.52,18.84h13.03Z"/>
        <path class="cls-6" d="M150.22,49.68c1.44-2.8,3.41-4.95,5.9-6.45,2.49-1.5,5.27-2.26,8.32-2.26,2.32,0,4.54.51,6.65,1.52,2.11,1.01,3.78,2.36,5.03,4.03v-16.97h9.16v47.75h-9.16v-5.29c-1.12,1.76-2.69,3.18-4.71,4.26-2.02,1.07-4.37,1.61-7.03,1.61-3.01,0-5.77-.77-8.26-2.32-2.5-1.55-4.46-3.73-5.9-6.55-1.44-2.82-2.16-6.05-2.16-9.71s.72-6.82,2.16-9.61ZM174.9,53.77c-.86-1.57-2.02-2.77-3.48-3.61-1.46-.84-3.03-1.26-4.71-1.26s-3.23.41-4.65,1.23c-1.42.82-2.57,2.01-3.45,3.58-.88,1.57-1.32,3.43-1.32,5.58s.44,4.03,1.32,5.65c.88,1.61,2.04,2.85,3.48,3.71,1.44.86,2.98,1.29,4.61,1.29s3.25-.42,4.71-1.26c1.46-.84,2.62-2.04,3.48-3.61.86-1.57,1.29-3.45,1.29-5.65s-.43-4.08-1.29-5.65Z"/>
      </g>
      <g>
        <path class="cls-4" d="M131.8,68.71h-17.94l-2.97,8.58h-9.49l16.2-45.1h10.52l16.2,45.1h-9.55l-2.97-8.58ZM129.35,61.48l-6.52-18.84-6.52,18.84h13.03Z"/>
        <path class="cls-4" d="M150.22,49.68c1.44-2.8,3.41-4.95,5.9-6.45,2.49-1.5,5.27-2.26,8.32-2.26,2.32,0,4.54.51,6.65,1.52,2.11,1.01,3.78,2.36,5.03,4.03v-16.97h9.16v47.75h-9.16v-5.29c-1.12,1.76-2.69,3.18-4.71,4.26-2.02,1.07-4.37,1.61-7.03,1.61-3.01,0-5.77-.77-8.26-2.32-2.5-1.55-4.46-3.73-5.9-6.55-1.44-2.82-2.16-6.05-2.16-9.71s.72-6.82,2.16-9.61ZM174.9,53.77c-.86-1.57-2.02-2.77-3.48-3.61-1.46-.84-3.03-1.26-4.71-1.26s-3.23.41-4.65,1.23c-1.42.82-2.57,2.01-3.45,3.58-.88,1.57-1.32,3.43-1.32,5.58s.44,4.03,1.32,5.65c.88,1.61,2.04,2.85,3.48,3.71,1.44.86,2.98,1.29,4.61,1.29s3.25-.42,4.71-1.26c1.46-.84,2.62-2.04,3.48-3.61.86-1.57,1.29-3.45,1.29-5.65s-.43-4.08-1.29-5.65Z"/>
      </g>
    </g>
    <g>
      <g>
        <path class="cls-6" d="M243.73,32.26v45.04h-9.03v-29.29l-12.07,29.29h-6.84l-12.13-29.29v29.29h-9.03v-45.04h10.26l14.33,33.49,14.33-33.49h10.2Z"/>
        <path class="cls-6" d="M286.38,41.55v35.75h-9.1v-4.52c-1.16,1.55-2.68,2.76-4.55,3.65s-3.9,1.32-6.1,1.32c-2.8,0-5.27-.59-7.42-1.78-2.15-1.18-3.84-2.92-5.07-5.23-1.23-2.3-1.84-5.04-1.84-8.23v-20.97h9.03v19.68c0,2.84.71,5.02,2.13,6.55,1.42,1.53,3.36,2.29,5.81,2.29s4.45-.76,5.87-2.29c1.42-1.53,2.13-3.71,2.13-6.55v-19.68h9.1Z"/>
        <path class="cls-6" d="M304.32,29.55v47.75h-9.03V29.55h9.03Z"/>
        <path class="cls-6" d="M323.74,48.97v17.29c0,1.21.29,2.08.87,2.61.58.54,1.56.81,2.94.81h4.19v7.61h-5.68c-7.61,0-11.42-3.7-11.42-11.1v-17.23h-4.26v-7.42h4.26v-8.84h9.1v8.84h8v7.42h-8Z"/>
        <path class="cls-6" d="M338.87,35.77c-1.05-1.01-1.58-2.27-1.58-3.77s.53-2.76,1.58-3.78c1.05-1.01,2.38-1.52,3.97-1.52s2.91.51,3.97,1.52c1.05,1.01,1.58,2.27,1.58,3.78s-.53,2.76-1.58,3.77c-1.05,1.01-2.38,1.52-3.97,1.52s-2.92-.5-3.97-1.52ZM347.29,41.55v35.75h-9.03v-35.75h9.03Z"/>
        <path class="cls-6" d="M370.04,42.61c2.04-1.1,4.38-1.65,7-1.65,3.05,0,5.82.75,8.29,2.26,2.47,1.51,4.43,3.65,5.87,6.42,1.44,2.77,2.16,5.99,2.16,9.65s-.72,6.89-2.16,9.71c-1.44,2.82-3.4,5-5.87,6.55s-5.24,2.32-8.29,2.32c-2.62,0-4.94-.54-6.94-1.61-2-1.08-3.62-2.43-4.87-4.07v22.13h-9.03v-52.78h9.03v5.16c1.16-1.63,2.76-3,4.81-4.1ZM382.81,53.71c-.88-1.57-2.04-2.76-3.48-3.58-1.44-.82-3-1.23-4.68-1.23s-3.17.42-4.61,1.26-2.6,2.05-3.48,3.65c-.88,1.59-1.32,3.46-1.32,5.61s.44,4.02,1.32,5.61,2.04,2.81,3.48,3.65,2.98,1.26,4.61,1.26,3.24-.43,4.68-1.29c1.44-.86,2.6-2.09,3.48-3.68s1.32-3.49,1.32-5.68-.44-4.01-1.32-5.58Z"/>
        <path class="cls-6" d="M408.98,29.55v47.75h-9.03V29.55h9.03Z"/>
        <path class="cls-6" d="M418.5,35.77c-1.05-1.01-1.58-2.27-1.58-3.77s.53-2.76,1.58-3.78c1.05-1.01,2.38-1.52,3.97-1.52s2.91.51,3.97,1.52c1.05,1.01,1.58,2.27,1.58,3.78s-.53,2.76-1.58,3.77c-1.05,1.01-2.38,1.52-3.97,1.52s-2.92-.5-3.97-1.52ZM426.92,41.55v35.75h-9.03v-35.75h9.03Z"/>
        <path class="cls-6" d="M468.79,62.13h-26.13c.21,2.58,1.12,4.6,2.71,6.07,1.59,1.46,3.55,2.19,5.87,2.19,3.36,0,5.74-1.44,7.16-4.32h9.74c-1.03,3.44-3.01,6.27-5.94,8.49-2.93,2.22-6.52,3.32-10.78,3.32-3.44,0-6.53-.76-9.26-2.29-2.73-1.53-4.86-3.69-6.39-6.49-1.53-2.8-2.29-6.02-2.29-9.68s.75-6.95,2.26-9.74c1.51-2.8,3.61-4.95,6.32-6.45,2.71-1.5,5.83-2.26,9.36-2.26s6.44.73,9.13,2.19c2.69,1.46,4.78,3.54,6.26,6.23,1.48,2.69,2.23,5.78,2.23,9.26,0,1.29-.09,2.45-.26,3.48ZM459.7,56.07c-.04-2.32-.88-4.18-2.52-5.58-1.63-1.4-3.64-2.1-6-2.1-2.24,0-4.12.68-5.65,2.03-1.53,1.35-2.46,3.24-2.81,5.65h16.97Z"/>
        <path class="cls-6" d="M489.22,42.64c1.87-1.07,4.01-1.61,6.42-1.61v9.49h-2.39c-2.84,0-4.98.67-6.42,2-1.44,1.33-2.16,3.66-2.16,6.97v17.81h-9.03v-35.75h9.03v5.55c1.16-1.89,2.68-3.38,4.55-4.45Z"/>
      </g>
      <g>
        <path class="cls-3" d="M243.73,32.26v45.04h-9.03v-29.29l-12.07,29.29h-6.84l-12.13-29.29v29.29h-9.03v-45.04h10.26l14.33,33.49,14.33-33.49h10.2Z"/>
        <path class="cls-3" d="M286.38,41.55v35.75h-9.1v-4.52c-1.16,1.55-2.68,2.76-4.55,3.65s-3.9,1.32-6.1,1.32c-2.8,0-5.27-.59-7.42-1.78-2.15-1.18-3.84-2.92-5.07-5.23-1.23-2.3-1.84-5.04-1.84-8.23v-20.97h9.03v19.68c0,2.84.71,5.02,2.13,6.55,1.42,1.53,3.36,2.29,5.81,2.29s4.45-.76,5.87-2.29c1.42-1.53,2.13-3.71,2.13-6.55v-19.68h9.1Z"/>
        <path class="cls-3" d="M304.32,29.55v47.75h-9.03V29.55h9.03Z"/>
        <path class="cls-3" d="M323.74,48.97v17.29c0,1.21.29,2.08.87,2.61.58.54,1.56.81,2.94.81h4.19v7.61h-5.68c-7.61,0-11.42-3.7-11.42-11.1v-17.23h-4.26v-7.42h4.26v-8.84h9.1v8.84h8v7.42h-8Z"/>
        <path class="cls-3" d="M338.87,35.77c-1.05-1.01-1.58-2.27-1.58-3.77s.53-2.76,1.58-3.78c1.05-1.01,2.38-1.52,3.97-1.52s2.91.51,3.97,1.52c1.05,1.01,1.58,2.27,1.58,3.78s-.53,2.76-1.58,3.77c-1.05,1.01-2.38,1.52-3.97,1.52s-2.92-.5-3.97-1.52ZM347.29,41.55v35.75h-9.03v-35.75h9.03Z"/>
        <path class="cls-3" d="M370.04,42.61c2.04-1.1,4.38-1.65,7-1.65,3.05,0,5.82.75,8.29,2.26,2.47,1.51,4.43,3.65,5.87,6.42,1.44,2.77,2.16,5.99,2.16,9.65s-.72,6.89-2.16,9.71c-1.44,2.82-3.4,5-5.87,6.55s-5.24,2.32-8.29,2.32c-2.62,0-4.94-.54-6.94-1.61-2-1.08-3.62-2.43-4.87-4.07v22.13h-9.03v-52.78h9.03v5.16c1.16-1.63,2.76-3,4.81-4.1ZM382.81,53.71c-.88-1.57-2.04-2.76-3.48-3.58-1.44-.82-3-1.23-4.68-1.23s-3.17.42-4.61,1.26-2.6,2.05-3.48,3.65c-.88,1.59-1.32,3.46-1.32,5.61s.44,4.02,1.32,5.61,2.04,2.81,3.48,3.65,2.98,1.26,4.61,1.26,3.24-.43,4.68-1.29c1.44-.86,2.6-2.09,3.48-3.68s1.32-3.49,1.32-5.68-.44-4.01-1.32-5.58Z"/>
        <path class="cls-3" d="M408.98,29.55v47.75h-9.03V29.55h9.03Z"/>
        <path class="cls-3" d="M418.5,35.77c-1.05-1.01-1.58-2.27-1.58-3.77s.53-2.76,1.58-3.78c1.05-1.01,2.38-1.52,3.97-1.52s2.91.51,3.97,1.52c1.05,1.01,1.58,2.27,1.58,3.78s-.53,2.76-1.58,3.77c-1.05,1.01-2.38,1.52-3.97,1.52s-2.92-.5-3.97-1.52ZM426.92,41.55v35.75h-9.03v-35.75h9.03Z"/>
        <path class="cls-3" d="M468.79,62.13h-26.13c.21,2.58,1.12,4.6,2.71,6.07,1.59,1.46,3.55,2.19,5.87,2.19,3.36,0,5.74-1.44,7.16-4.32h9.74c-1.03,3.44-3.01,6.27-5.94,8.49-2.93,2.22-6.52,3.32-10.78,3.32-3.44,0-6.53-.76-9.26-2.29-2.73-1.53-4.86-3.69-6.39-6.49-1.53-2.8-2.29-6.02-2.29-9.68s.75-6.95,2.26-9.74c1.51-2.8,3.61-4.95,6.32-6.45,2.71-1.5,5.83-2.26,9.36-2.26s6.44.73,9.13,2.19c2.69,1.46,4.78,3.54,6.26,6.23,1.48,2.69,2.23,5.78,2.23,9.26,0,1.29-.09,2.45-.26,3.48ZM459.7,56.07c-.04-2.32-.88-4.18-2.52-5.58-1.63-1.4-3.64-2.1-6-2.1-2.24,0-4.12.68-5.65,2.03-1.53,1.35-2.46,3.24-2.81,5.65h16.97Z"/>
        <path class="cls-3" d="M489.22,42.64c1.87-1.07,4.01-1.61,6.42-1.61v9.49h-2.39c-2.84,0-4.98.67-6.42,2-1.44,1.33-2.16,3.66-2.16,6.97v17.81h-9.03v-35.75h9.03v5.55c1.16-1.89,2.68-3.38,4.55-4.45Z"/>
      </g>
    </g>
    <g>
      <path class="cls-5" d="M52.17,70.63c.09.07.18.12.27.19v23.48h-9.25v-23.35c.09-.08.2-.15.3-.22.55-.37,1.12-.72,1.7-1.03l2.72-1.42,2.65,1.4c.59.31,1.13.63,1.6.94Z"/>
      <path class="cls-3" d="M52.44,70.82v23.48h-9.25v-23.35c.09-.08.2-.15.3-.22.55-.37,1.12-.72,1.7-1.03l2.72-1.42,2.65,1.4c.59.31,1.13.63,1.6.94.09.07.18.12.27.19Z"/>
      <path class="cls-5" d="M52.44,48.95l-2.63,1.36c-.27.14-.54.27-.81.42l-1.08.56-4.72-2.45v-22h-7.98l12.6-17.86,12.61,17.86h-7.98v22.09Z"/>
      <path class="cls-3" d="M60.42,26.86h-7.98v22.09l-2.63,1.36c-.27.14-.54.27-.81.42l-1.08.56-4.72-2.45v-22h-7.98l12.6-17.86,12.61,17.86Z"/>
      <path class="cls-4" d="M70.26,86.31c0,.72,0,1.44,0,2.16,0,.31-.04,3.63-.07,3.99l-.12,1.84h-9.5v-1.45c0-.31,0-.59,0-.88,0-.51,0-3.98,0-4.45-.06-1.11-.08-2.22-.1-3.34-.06-2.47-.11-5.01-.58-7.4-.56-2.85-2.11-5.33-4.6-7.38-.47-.4-.99-.77-1.53-1.14-.55-.36-1.16-.72-1.82-1.07l-.96-.51-4.2-2.2c-.37-.19-.72-.39-1.08-.57h0c-.66-.35-1.32-.69-1.98-1.04-.91-.47-1.83-.95-2.75-1.43l-2.47-1.31c-.57-.3-1.14-.61-1.7-.91-.55-.29-1.09-.59-1.64-.88-.87-.47-1.74-.95-2.61-1.44-7.67-4.31-12.06-10.9-12.75-19.1h-7.93l12.6-17.86,6.1,8.64.76,1.09,5.74,8.13h-7.55c.73,4.98,3.64,8.86,8.66,11.57.73.4,1.48.79,2.22,1.19.48.25.97.5,1.45.75l3.05,1.59h0l3.46,1.8c.6.31,1.2.63,1.8.95.6.32,1.21.64,1.82.96.92.5,1.84,1,2.76,1.51.49.27.99.56,1.48.83l.14.08c.74.42,1.49.87,2.22,1.31.16.08.32.19.47.28.52.33,1.02.66,1.5,1.01,6.14,4.43,9.4,10.73,9.69,18.73.08,1.99.07,3.99.05,5.94Z"/>
      <path class="cls-4" d="M44.87,66.7l-.98.51c-.69.37-1.35.77-1.98,1.2-.55.38-1.06.76-1.54,1.18-2.38,2.02-3.88,4.44-4.42,7.22-.48,2.4-.54,4.96-.58,7.43-.02,1.1-.05,2.21-.1,3.3-.02.49-.02,3.97,0,4.5,0,.26,0,.54,0,.83v1.45h-9.58l-.05-1.84c-.04-.36-.07-.68-.07-1,0-.73,0-4.47,0-5.21-.02-1.92-.04-3.91.04-5.88.29-8.01,3.55-14.29,9.69-18.72.05.02.08.04.13.07.57.31,1.15.61,1.73.92l2.47,1.31c.92.49,1.84.97,2.75,1.44.09.05.18.09.27.14.74.39,1.48.78,2.22,1.17Z"/>
      <path class="cls-4" d="M83.98,37.81h-7.94c-.68,8.21-5.07,14.79-12.74,19.1-.87.49-1.74.97-2.61,1.44h0s-.07-.05-.1-.07c-.19-.13-.39-.24-.56-.36-.75-.45-1.51-.89-2.27-1.33l-.15-.08c-.51-.29-1.01-.57-1.5-.85-.93-.52-1.87-1.04-2.8-1.53-.04-.02-.07-.04-.1-.06-.73-.4-1.48-.79-2.22-1.19.04-.02.08-.04.11-.06l2.74-1.42c.48-.25.97-.51,1.45-.76.8-.41,1.6-.84,2.4-1.27,5.02-2.71,7.92-6.6,8.66-11.57h-7.56l5.74-8.13.69-.97,6.18-8.76,12.6,17.86Z"/>
    </g>
  </g>
</svg>